<?xml version="1.0" encoding="UTF-8"?>
<svg id="OBJECTS" xmlns="http://www.w3.org/2000/svg" viewBox="0 0 75 75">
  <defs>
    <style>
      .cls-1 {
        fill: #2c3761;
      }

      .cls-1, .cls-2, .cls-3 {
        stroke-width: 0px;
      }

      .cls-2 {
        fill: #ffffe5;
      }

      .cls-3 {
        fill: #ed5d15;
      }
    </style>
  </defs>
  <circle class="cls-2" cx="37.5" cy="37.5" r="37.5"/>
  <g>
    <g>
      <g>
        <path class="cls-1" d="M33.91,58.33s-10.66-8.38-22.19-5.75l1.15-4.75s1.1,0,2.17.38l-.47,2.59s10.45-1.34,19.33,7.53"/>
        <path class="cls-1" d="M33.91,58.33s-9.53-11.78-24.01-11.78l8.12-24.22s.66.11,2.55.83l-6.89,20.53s14.47,4.11,20.24,14.64"/>
        <path class="cls-1" d="M33.91,58.33c-4.72-13.78-17.85-16.7-17.85-16.7l6.75-20.15c1.05.32,2.02.72,2.9,1.16,1.54.78,2.82,1.72,3.88,2.68l-1.13,3.03s-1.21-2.5-4.15-2.73l-4.81,13.93s10.59,2.33,14.41,18.78Z"/>
      </g>
      <g>
        <path class="cls-1" d="M40.88,58.33s10.66-8.38,22.19-5.75l-1.15-4.75s-1.1,0-2.17.38l.47,2.59s-10.45-1.34-19.33,7.53"/>
        <path class="cls-1" d="M40.88,58.33s9.53-11.78,24.01-11.78l-8.12-24.22s-.66.11-2.55.83l6.89,20.53s-14.47,4.11-20.24,14.64"/>
        <path class="cls-1" d="M40.88,58.33c4.72-13.78,17.85-16.7,17.85-16.7l-6.75-20.15c-1.05.32-2.02.72-2.9,1.16-1.54.78-2.82,1.72-3.88,2.68l1.13,3.03s1.21-2.5,4.15-2.73l4.81,13.93s-10.59,2.33-14.41,18.78Z"/>
      </g>
    </g>
    <g>
      <path class="cls-3" d="M36.11,46.78c-5.75-.87-10.31-5.43-11.19-11.19,5.75.87,10.31,5.43,11.19,11.19Z"/>
      <path class="cls-3" d="M35.86,41.18c-4.49-2.5-6.86-7.69-5.81-12.72,4.49,2.5,6.86,7.69,5.81,12.72Z"/>
      <path class="cls-3" d="M38.94,41.18c4.49-2.5,6.86-7.69,5.81-12.72-4.49,2.5-6.86,7.69-5.81,12.72Z"/>
      <path class="cls-3" d="M37.3,21.48c-2.93,4.23-2.77,9.92.4,13.98,2.93-4.23,2.77-9.92-.4-13.98Z"/>
      <path class="cls-3" d="M38.69,46.78c.87-5.75,5.43-10.31,11.19-11.19-.87,5.75-5.43,10.31-11.19,11.19Z"/>
    </g>
  </g>
</svg>