<?xml version="1.0" encoding="UTF-8"?>
<svg id="OBJECTS" xmlns="http://www.w3.org/2000/svg" viewBox="0 0 215.08 36.86">
  <defs>
    <style>
      .cls-1 {
        font-family: Times-Roman, Times;
        font-size: 7.06px;
        letter-spacing: .3em;
      }

      .cls-1, .cls-2 {
        fill: #ed5d15;
      }

      .cls-3 {
        font-family: Times-Bold, Times;
        font-size: 21px;
        font-weight: 700;
        letter-spacing: .05em;
      }

      .cls-3, .cls-4 {
        fill: #2c3761;
      }

      .cls-4, .cls-2 {
        stroke-width: 0px;
      }
    </style>
  </defs>
  <g>
    <text class="cls-1" transform="translate(65.78 32.24)"><tspan x="0" y="0">By Neo Zhiwei Marcus</tspan></text>
    <text class="cls-3" transform="translate(65.51 18)"><tspan x="0" y="0">School Library</tspan></text>
  </g>
  <g>
    <g>
      <g>
        <path class="cls-4" d="M24.01,36.86S13.35,28.48,1.83,31.11l1.15-4.75s1.1,0,2.17.38l-.47,2.59s10.45-1.34,19.33,7.53"/>
        <path class="cls-4" d="M24.01,36.86S14.48,25.08,0,25.08L8.12.86s.66.11,2.55.83L3.77,22.21s14.47,4.11,20.24,14.64"/>
        <path class="cls-4" d="M24.01,36.86C19.29,23.07,6.17,20.15,6.17,20.15L12.92,0c1.05.32,2.02.72,2.9,1.16,1.54.78,2.82,1.72,3.88,2.68l-1.13,3.03s-1.21-2.5-4.15-2.73l-4.81,13.93s10.59,2.33,14.41,18.78Z"/>
      </g>
      <g>
        <path class="cls-4" d="M30.99,36.86s10.66-8.38,22.19-5.75l-1.15-4.75s-1.1,0-2.17.38l.47,2.59s-10.45-1.34-19.33,7.53"/>
        <path class="cls-4" d="M30.99,36.86s9.53-11.78,24.01-11.78L46.88.86s-.66.11-2.55.83l6.89,20.53s-14.47,4.11-20.24,14.64"/>
        <path class="cls-4" d="M30.99,36.86c4.72-13.78,17.85-16.7,17.85-16.7L42.08,0c-1.05.32-2.02.72-2.9,1.16-1.54.78-2.82,1.72-3.88,2.68l1.13,3.03s1.21-2.5,4.15-2.73l4.81,13.93s-10.59,2.33-14.41,18.78Z"/>
      </g>
    </g>
    <g>
      <path class="cls-2" d="M26.21,25.3c-5.75-.87-10.31-5.43-11.19-11.19,5.75.87,10.31,5.43,11.19,11.19Z"/>
      <path class="cls-2" d="M25.96,19.71c-4.49-2.5-6.86-7.69-5.81-12.72,4.49,2.5,6.86,7.69,5.81,12.72Z"/>
      <path class="cls-2" d="M29.04,19.71c4.49-2.5,6.86-7.69,5.81-12.72-4.49,2.5-6.86,7.69-5.81,12.72Z"/>
      <path class="cls-2" d="M27.41,0c-2.93,4.23-2.77,9.92.4,13.98,2.93-4.23,2.77-9.92-.4-13.98Z"/>
      <path class="cls-2" d="M28.79,25.3c.87-5.75,5.43-10.31,11.19-11.19-.87,5.75-5.43,10.31-11.19,11.19Z"/>
    </g>
  </g>
</svg>