<?xml version="1.0" encoding="UTF-8"?>
<svg xmlns="http://www.w3.org/2000/svg" viewBox="0 0 427.84 405.5">
  <defs>
    <style>
      .cls-1 {
        font-family: Times-Bold, Times;
        font-size: 68.92px;
        font-weight: 700;
      }

      .cls-1, .cls-2 {
        fill: #003060;
      }

      .cls-3 {
        opacity: .1;
      }

      .cls-3, .cls-4, .cls-5, .cls-6, .cls-7, .cls-8, .cls-9, .cls-10, .cls-11 {
        stroke-width: 0px;
      }

      .cls-4 {
        opacity: .2;
      }

      .cls-4, .cls-6, .cls-8 {
        fill: #5c7b9a;
      }

      .cls-2 {
        font-family: Times-Roman, Times;
        font-size: 12px;
      }

      .cls-5, .cls-12 {
        opacity: .4;
      }

      .cls-5, .cls-9 {
        fill: #264f78;
      }

      .cls-6 {
        opacity: .6;
      }

      .cls-7 {
        fill: #263238;
      }

      .cls-10 {
        fill: #fff;
      }

      .cls-11 {
        fill: #ebebeb;
      }
    </style>
  </defs>
  <g id="Background_Complete" data-name="Background Complete">
    <g>
      <rect class="cls-11" x="-46.63" y="360.34" width="500" height=".25"/>
      <rect class="cls-11" x="370.15" y="376.44" width="33.12" height=".25"/>
      <rect class="cls-11" x="213.71" y="373.3" width="12.89" height=".25"/>
      <rect class="cls-11" x="275.9" y="374.36" width="27.14" height=".25"/>
      <rect class="cls-11" x="313.04" y="367.15" width="56.11" height=".25"/>
      <rect class="cls-11" x="5.83" y="378.72" width="26.53" height=".25"/>
      <rect class="cls-11" x="41.26" y="378.72" width="23" height=".25"/>
      <rect class="cls-11" x="84.37" y="373.18" width="60.81" height=".25"/>
      <path class="cls-11" d="M190.39,315.74H-2.71c-3.15,0-5.71-2.56-5.71-5.71V38.6c0-3.15,2.56-5.71,5.71-5.71h193.1c3.15,0,5.71,2.56,5.71,5.71v271.43c0,3.15-2.56,5.71-5.71,5.71ZM-2.71,33.14c-3.01,0-5.46,2.45-5.46,5.46v271.43c0,3.01,2.45,5.46,5.46,5.46h193.1c3.01,0,5.46-2.45,5.46-5.46V38.6c0-3.01-2.45-5.46-5.46-5.46H-2.71Z"/>
      <path class="cls-11" d="M406.68,315.74h-193.1c-3.15,0-5.71-2.56-5.71-5.71V38.6c0-3.15,2.56-5.71,5.71-5.71h193.1c3.15,0,5.71,2.56,5.71,5.71v271.43c0,3.15-2.56,5.71-5.71,5.71ZM213.58,33.14c-3.01,0-5.46,2.45-5.46,5.46v271.43c0,3.01,2.45,5.46,5.46,5.46h193.1c3.01,0,5.46-2.45,5.46-5.46V38.6c0-3.01-2.45-5.46-5.46-5.46h-193.1Z"/>
    </g>
    <g class="cls-12">
      <g>
        <g class="cls-12">
          <path class="cls-9" d="M420.44,172.11c3.25-11.28,2.66-22.76-.99-33.04,2.85-4.08,5.1-8.69,6.56-13.74,6.7-23.22-5.51-47.4-27.54-56.11-4.25-30.42-25.84-57-57.25-66.06-24.84-7.16-50.31-1.78-69.67,12.39-4.85-5.07-11.05-8.98-18.27-11.06-21.78-6.28-44.53,6.28-50.81,28.06-1.05,3.64-1.56,7.31-1.6,10.93-21.92,4.42-40.69,20.57-47.31,43.54-5.95,20.63-.68,41.84,12.19,57.11-1.66,3.01-3.03,6.24-4.02,9.68-7.13,24.73,7.13,50.55,31.86,57.68,8.15,2.35,16.42,2.36,24.1.46,9.09,12.53,22.26,22.25,38.28,26.87,20.63,5.95,41.74,2.25,58.54-8.41,7.52,17.49,13.7,43.73.4,69.46,48.34-4.74,83.26-51.11,76.14-93.6,13.8-6.35,24.86-18.42,29.4-34.16Z"/>
          <path class="cls-9" d="M327.69,290.27c-.26,0-.52-.1-.71-.29-.26-.26-.36-.63-.26-.99,6.81-23.72.6-46.46-5.8-61.36l-3.25-7.55-6.94,4.4c-10.47,6.65-22.52,10.16-34.83,10.16-6.07,0-12.13-.86-18.02-2.56-14.03-4.05-25.98-12.44-34.56-24.26l-2.77-3.82-4.58,1.14c-6.72,1.67-13.79,1.54-20.48-.39-10.16-2.93-18.57-9.64-23.69-18.9-5.11-9.26-6.31-19.95-3.38-30.12.82-2.84,1.97-5.61,3.42-8.23l2.33-4.22-3.11-3.68c-11.86-14.07-15.91-33.01-10.82-50.66,5.7-19.75,21.78-34.55,41.97-38.62l5.55-1.12.06-5.66c.03-3.08.48-6.13,1.33-9.07,4.18-14.5,17.62-24.62,32.69-24.62,3.18,0,6.36.45,9.45,1.34,5.77,1.67,11.01,4.84,15.15,9.17l4.24,4.44,4.95-3.62c12.52-9.16,27.89-14.2,43.28-14.2,6.84,0,13.67.97,20.31,2.89,27.75,8,48.26,31.67,52.26,60.3l.56,4.04,3.8,1.5c19,7.51,29.06,28,23.39,47.66-1.21,4.18-3.08,8.1-5.57,11.67l-2.06,2.95,1.2,3.4c3.31,9.31,3.6,19.26.86,28.76-3.8,13.16-13.13,24-25.6,29.74l-4.86,2.24.88,5.28c3.04,18.13-2.42,37.93-14.98,54.33-10.46,13.66-25.08,23.77-41.18,28.47-.09.03-.19.04-.28.04ZM318.14,217.62c.1,0,.2.01.3.04.28.09.51.29.62.56l3.71,8.62c6.38,14.83,12.55,37.29,6.37,60.93,15.01-4.79,28.6-14.41,38.43-27.24,12.22-15.96,17.54-35.2,14.6-52.78l-1.01-6.03c-.07-.45.16-.88.57-1.07l5.56-2.56c11.95-5.5,20.88-15.88,24.52-28.48,2.62-9.1,2.34-18.62-.83-27.54l-1.38-3.88c-.11-.3-.06-.64.12-.91l2.36-3.38c2.37-3.39,4.15-7.12,5.29-11.08,5.38-18.66-4.16-38.11-22.2-45.24l-4.34-1.71c-.33-.13-.57-.43-.62-.79l-.65-4.62c-3.89-27.85-23.84-50.88-50.83-58.66-6.46-1.86-13.11-2.81-19.76-2.81-14.98,0-29.93,4.91-42.1,13.81l-5.66,4.14c-.41.3-.97.25-1.31-.12l-4.85-5.07c-3.9-4.08-8.83-7.06-14.26-8.63-2.91-.84-5.9-1.27-8.9-1.27-14.18,0-26.84,9.53-30.77,23.18-.8,2.77-1.22,5.64-1.25,8.53l-.07,6.47c0,.47-.34.88-.8.97l-6.35,1.28c-19.46,3.92-34.95,18.18-40.44,37.21-4.9,17.01-1.01,35.25,10.43,48.81l3.55,4.21c.27.32.31.77.11,1.13l-2.67,4.82c-1.38,2.49-2.47,5.12-3.25,7.82-2.78,9.65-1.64,19.8,3.21,28.59,4.86,8.79,12.84,15.17,22.49,17.95,6.35,1.83,13.06,1.95,19.44.37l5.24-1.3c.39-.1.81.05,1.05.38l3.17,4.37c8.31,11.46,19.89,19.59,33.49,23.51,5.71,1.65,11.59,2.48,17.47,2.48,11.93,0,23.6-3.41,33.76-9.85l7.93-5.03c.16-.1.35-.16.54-.16Z"/>
        </g>
        <path class="cls-10" d="M257.56,124.13l-26.8-4.17.42-2.68c.71-4.56,1.8-8.18,3.28-10.87s3.42-5.04,5.83-7.08c2.41-2.03,7.65-5.45,15.72-10.27,4.29-2.51,6.64-5.06,7.04-7.64.4-2.59-.05-4.72-1.35-6.39-1.31-1.67-3.51-2.75-6.61-3.23-3.34-.52-6.27.16-8.8,2.02-2.53,1.87-4.53,5.51-6,10.92l-26.84-7.65c2.51-9.92,7.42-17.45,14.75-22.59,7.33-5.15,17.57-6.69,30.74-4.64,10.25,1.6,18.19,5.03,23.83,10.28,7.66,7.12,10.74,15.5,9.24,25.13-.62,4-2.33,7.68-5.12,11.05-2.79,3.37-8.01,7.21-15.66,11.5-5.34,3.02-8.8,5.58-10.4,7.66-1.6,2.09-2.69,4.96-3.26,8.63ZM228.73,126.94l28.71,4.47-3.94,25.32-28.71-4.47,3.94-25.32Z"/>
        <path class="cls-10" d="M325.96,163.37l-14.88-12.05,1.21-1.49c2.05-2.53,4-4.36,5.86-5.47,1.85-1.11,3.88-1.86,6.07-2.25,2.19-.39,6.61-.62,13.24-.69,3.51-.01,5.85-.73,7.01-2.17,1.16-1.44,1.64-2.9,1.44-4.38-.2-1.48-1.17-2.92-2.89-4.32-1.85-1.5-3.88-2.13-6.09-1.89-2.21.24-4.72,1.75-7.53,4.54l-13.67-14.19c5.05-5.16,10.72-8.02,17.02-8.56,6.3-.54,13.1,2.15,20.41,8.07,5.69,4.61,9.32,9.52,10.9,14.73,2.15,7.06,1.06,13.27-3.28,18.62-1.8,2.22-4.15,3.86-7.04,4.93-2.9,1.07-7.44,1.56-13.64,1.47-4.33-.05-7.35.28-9.07.99-1.72.71-3.4,2.08-5.05,4.11ZM307.37,154.86l15.94,12.91-11.39,14.06-15.94-12.91,11.39-14.06Z"/>
        <path class="cls-10" d="M330.12,76.75l-6.44-8.8.88-.64c1.5-1.1,2.84-1.82,4.02-2.16,1.18-.34,2.4-.46,3.67-.36,1.26.11,3.73.62,7.39,1.54,1.93.5,3.32.45,4.17-.18.85-.62,1.32-1.36,1.43-2.2.1-.85-.22-1.78-.96-2.8-.8-1.1-1.83-1.74-3.08-1.92-1.25-.19-2.85.28-4.8,1.4l-5.47-9.79c3.53-2.11,7.06-2.86,10.61-2.24,3.55.62,6.9,3.08,10.06,7.4,2.46,3.36,3.75,6.59,3.86,9.69.16,4.2-1.34,7.46-4.51,9.77-1.31.96-2.84,1.52-4.59,1.69-1.75.17-4.32-.22-7.72-1.17-2.38-.65-4.09-.91-5.14-.77-1.05.14-2.17.65-3.38,1.53ZM321.13,69.36l6.9,9.42-8.31,6.08-6.9-9.42,8.31-6.08Z"/>
      </g>
      <g>
        <path class="cls-5" d="M81.71,201.52c-8.27,0-16.59-2.26-23.96-6.66-10.15-6.05-17.32-15.42-19.75-25.79-8.24-.59-15.83-4.64-20.89-11.16-3.67-4.72-5.76-10.34-6.07-16.3-2.17-1.48-4.09-3.28-5.71-5.35-7.89-10.15-6.9-24.4,2.25-33.34-3.81-16.26,2.2-33.31,15.39-43.56,10.35-8.04,23.53-10.87,36.27-7.8,1.48-3.38,3.79-6.34,6.71-8.61,4.69-3.65,10.53-5.25,16.43-4.51,5.9.74,11.16,3.73,14.8,8.43,1.1,1.41,2.02,2.96,2.76,4.6,12.03-1.97,24.08,2.73,31.57,12.38,6.7,8.62,8.72,19.92,5.44,30.33,1.31,1.12,2.5,2.36,3.54,3.7,8.51,10.95,6.53,26.79-4.43,35.3-3.34,2.6-7.3,4.31-11.48,4.98-2.18,8.16-6.85,15.21-13.54,20.4-8.44,6.56-19.25,9.3-29.79,7.58-.11,9.71,2.15,22.88,13.02,32.3.22.19.31.48.25.76-.06.28-.27.51-.55.59-4,1.16-8.14,1.73-12.29,1.73ZM49.1,51.92c-9.03,0-17.84,2.98-25.18,8.68-12.82,9.97-18.6,26.61-14.72,42.39.07.27-.02.56-.22.76C.12,112.11-.92,125.67,6.56,135.3c1.59,2.05,3.5,3.81,5.66,5.23.21.14.34.37.35.63.22,5.77,2.22,11.23,5.76,15.8,4.91,6.32,12.32,10.18,20.33,10.59.35.02.65.27.73.62,2.21,10.17,9.19,19.41,19.16,25.35,10.28,6.12,22.45,7.97,33.63,5.14-10.73-10.04-12.73-23.66-12.47-33.47,0-.23.11-.45.29-.59.18-.14.41-.2.64-.16,10.39,1.95,21.12-.64,29.45-7.11,6.54-5.09,11.08-12.02,13.11-20.06.08-.31.34-.54.65-.58,4.09-.56,7.98-2.2,11.25-4.74,10.27-7.98,12.13-22.83,4.15-33.1-1.08-1.39-2.33-2.66-3.71-3.8-.25-.21-.35-.55-.25-.85,3.34-10.05,1.46-21.03-5.03-29.38-7.26-9.34-19.01-13.82-30.67-11.69-.37.07-.73-.13-.87-.47-.71-1.73-1.65-3.35-2.79-4.82-3.39-4.36-8.28-7.15-13.76-7.83-5.48-.69-10.91.8-15.27,4.19-2.88,2.24-5.13,5.21-6.49,8.59-.15.37-.55.56-.92.47-3.45-.89-6.94-1.32-10.4-1.32Z"/>
        <g class="cls-12">
          <path class="cls-9" d="M53.97,117.9l-13.81,3.25-.33-1.38c-.55-2.35-.74-4.32-.55-5.91.19-1.59.67-3.12,1.44-4.58.77-1.46,2.64-4.15,5.6-8.07,1.59-2.06,2.22-3.76,1.91-5.09-.31-1.33-.95-2.28-1.91-2.83-.96-.55-2.24-.64-3.84-.27-1.72.41-3.01,1.31-3.87,2.71-.86,1.4-1.11,3.56-.76,6.47l-14.51,1.58c-.74-5.3.16-9.92,2.7-13.85,2.54-3.94,7.2-6.7,13.99-8.3,5.28-1.24,9.81-1.14,13.57.3,5.11,1.94,8.25,5.4,9.42,10.36.49,2.06.38,4.18-.3,6.36-.69,2.18-2.46,5.07-5.33,8.66-1.99,2.52-3.17,4.44-3.53,5.76-.37,1.33-.33,2.93.12,4.82ZM40.55,124.93l14.79-3.48,3.07,13.05-14.79,3.48-3.07-13.05Z"/>
        </g>
        <g class="cls-12">
          <path class="cls-9" d="M89.13,88.73l-9.59-2.91.29-.96c.5-1.63,1.08-2.9,1.76-3.8.68-.91,1.51-1.67,2.5-2.29.99-.62,3.08-1.6,6.28-2.94,1.7-.7,2.69-1.51,2.97-2.43s.23-1.73-.16-2.41c-.39-.68-1.14-1.19-2.25-1.52-1.19-.36-2.3-.27-3.32.28-1.02.55-1.94,1.78-2.76,3.68l-9.42-4.19c1.43-3.5,3.62-6,6.56-7.5,2.95-1.5,6.77-1.54,11.48-.11,3.67,1.11,6.39,2.78,8.18,5,2.43,3,3.12,6.22,2.08,9.67-.43,1.43-1.25,2.69-2.44,3.78-1.19,1.09-3.3,2.22-6.32,3.4-2.11.83-3.51,1.58-4.2,2.26-.69.68-1.24,1.68-1.64,2.99ZM78.44,88.26l10.27,3.12-2.75,9.06-10.27-3.12,2.75-9.06Z"/>
        </g>
      </g>
    </g>
  </g>
  <g id="Shadow">
    <ellipse id="_Path_" data-name="&amp;lt;Path&amp;gt;" class="cls-5" cx="203.37" cy="394.18" rx="193.89" ry="11.32"/>
  </g>
  <g id="Question_Marks" data-name="Question Marks">
    <g>
      <g>
        <path class="cls-9" d="M110.98,225.38l-.92-.39c.83-1.95,1.3-3.58,1.45-4.96l.99.11c-.16,1.48-.66,3.19-1.53,5.24ZM110.59,213.93c-1.94-4.26-5.55-6.95-10.43-7.77l.17-.99c5.23.88,9.09,3.77,11.17,8.35l-.91.41Z"/>
        <path class="cls-9" d="M105.35,235.44l-9.84,4.48-.45-.98c-.76-1.67-1.19-3.12-1.29-4.34-.1-1.22.04-2.43.39-3.63.36-1.2,1.35-3.49,2.99-6.86.88-1.78,1.1-3.14.67-4.09-.43-.95-1.05-1.56-1.85-1.83-.8-.27-1.77-.15-2.91.37-1.23.56-2.05,1.43-2.49,2.6-.43,1.18-.3,2.83.39,4.95l-10.61,3.33c-1.34-3.85-1.35-7.43-.03-10.75,1.31-3.32,4.39-6.08,9.22-8.28,3.76-1.71,7.16-2.31,10.19-1.79,4.11.69,6.97,2.81,8.58,6.35.67,1.47.91,3.07.72,4.8-.19,1.73-1.09,4.15-2.7,7.26-1.11,2.17-1.71,3.78-1.79,4.83-.08,1.05.19,2.24.8,3.59ZM96.37,242.69l10.54-4.8,4.23,9.29-10.54,4.8-4.23-9.29Z"/>
      </g>
      <path class="cls-9" d="M81.01,257.67l-5.01,6.79-.68-.5c-1.16-.85-2-1.67-2.53-2.47-.53-.79-.9-1.67-1.11-2.63-.21-.96-.4-2.9-.57-5.81-.08-1.55-.44-2.56-1.1-3.04-.66-.48-1.31-.66-1.96-.55-.65.12-1.26.57-1.84,1.36-.62.85-.86,1.75-.71,2.72.15.97.87,2.04,2.15,3.22l-5.97,6.31c-2.38-2.12-3.75-4.56-4.11-7.32-.37-2.76.68-5.81,3.14-9.15,1.91-2.6,4-4.3,6.26-5.1,3.06-1.09,5.82-.73,8.26,1.07,1.01.75,1.78,1.75,2.31,3,.53,1.25.84,3.25.92,5.97.07,1.91.27,3.23.62,3.97.35.74.98,1.45,1.91,2.14ZM77.64,266.03l5.36-7.28,6.42,4.73-5.36,7.28-6.42-4.73Z"/>
    </g>
  </g>
  <g id="Character">
    <g>
      <path class="cls-9" d="M187.46,390.58c-1.62,0-3.19-.88-3.99-2.42-4.02-7.76-9.07-16.87-18.15-26.73-1.06-1.15-1.45-2.78-1.01-4.28,3.37-11.71,8.67-27.72,8.72-27.88.78-2.35,3.32-3.63,5.67-2.85,2.35.78,3.63,3.32,2.85,5.67-.05.15-4.61,13.94-7.92,25.16,8.35,9.47,13.5,18.46,17.82,26.79,1.14,2.2.28,4.91-1.92,6.04-.66.34-1.36.5-2.06.5Z"/>
      <polygon class="cls-7" points="194.93 394.18 160.14 394.18 178.58 383.72 194.04 384.32 194.93 394.18"/>
      <ellipse class="cls-7" cx="184.17" cy="328.28" rx="30.04" ry="24.9" transform="translate(-89.55 69.89) rotate(-17.36)"/>
      <path class="cls-7" d="M105.03,311.92c-1.76,0-3.43-1.04-4.15-2.77-.95-2.29.14-4.91,2.43-5.86,2.61-1.08,2.97-3.74,2.97-3.77.19-2,1.69-3.64,3.67-4,1.07-.19,2.1-.5,3.3-.84,6.08-1.78,13.6-3.98,37.31,2.66,23.38-13.08,23.65-37.6,23.65-38.66,0-2.47,2-4.49,4.47-4.49h.02c2.46,0,4.47,1.98,4.48,4.45,0,1.3-.14,32.08-30.04,47.5-1.02.53-2.2.64-3.3.32-22.59-6.53-28.96-4.67-34.07-3.17-.45.13-.91.27-1.38.4-1.11,2.85-3.41,6.14-7.64,7.89-.56.23-1.14.34-1.71.34Z"/>
      <path class="cls-9" d="M157.45,279.83c-8.51-33.82-31.18-121.06,41.47-126.39,65.18-4.78,83.07,81.97,87.41,112.03,2.53,17.52,3.39,33.4,3.53,45.82.19,16.01-11.06,29.82-26.76,33.01-35.51,7.21-69.12,8.24-91.75-.69-6.12-2.42-9.82-8.65-9.23-15.2.87-9.72.89-26.43-4.68-48.56Z"/>
      <path class="cls-3" d="M286.33,265.46c-4.1-28.32-20.22-107.04-76.66-111.96-6.57-.57-13.05,2.66-16.07,8.52-2.52,4.88-2.44,10.79,1.33,16.64,12.44,19.29,42.11,85.96,37.63,122.29-2.04,16.53-12.41,29.73-3.39,48.31,10.89-.9,22.31-2.59,33.94-4.96,15.7-3.18,26.95-16.99,26.76-33.01-.15-12.41-1-28.3-3.54-45.82Z"/>
      <path class="cls-7" d="M276.61,311.73c-.25,0-.45-.2-.45-.44-.18-15.45-1.37-30.85-3.53-45.76-10.8-74.65-39.88-112.41-84.1-109.15-.24.03-.46-.17-.48-.41-.02-.25.17-.46.41-.48,44.75-3.3,74.17,34.72,85.05,109.92,2.16,14.95,3.35,30.39,3.54,45.88,0,.25-.2.45-.44.45h0Z"/>
      <ellipse class="cls-7" cx="268.5" cy="330.67" rx="30.04" ry="24.9" transform="translate(-86.42 95.16) rotate(-17.36)"/>
      <path class="cls-9" d="M278.67,390.58c-1.62,0-3.19-.88-3.99-2.42-4.02-7.76-9.07-16.87-18.15-26.73-1.06-1.15-1.45-2.78-1.01-4.28,3.37-11.71,8.67-27.72,8.72-27.88.78-2.35,3.31-3.63,5.67-2.85,2.35.78,3.63,3.32,2.85,5.67-.05.15-4.61,13.94-7.92,25.16,8.35,9.47,13.5,18.46,17.82,26.79,1.14,2.2.28,4.91-1.92,6.04-.66.34-1.36.5-2.06.5Z"/>
      <path class="cls-7" d="M269.25,253.85c-1.61,0-3.17-.87-3.98-2.4-1.15-2.19-.31-4.9,1.88-6.05h0c.86-.46,20.39-11.13,25.88-36.77-13.02-5.45-36.42-17.74-41.54-23.92-.5-.6-.83-1.32-.96-2.08-.12-.67-.96-5.98,1-11l-2.36-4.56c-1.14-2.2-.28-4.91,1.92-6.05,2.2-1.14,4.91-.28,6.05,1.92l3.4,6.56c.73,1.4.66,3.08-.17,4.43-1.07,1.73-1.21,4.26-1.12,5.91,5.76,5.21,29.04,17.54,40.43,21.77,2,.74,3.2,2.79,2.87,4.89-5.07,32.77-30.14,46.27-31.21,46.83-.66.35-1.38.51-2.08.51Z"/>
      <path class="cls-7" d="M254.94,184.09c-.42,0-.85-.12-1.23-.37-1.04-.68-1.33-2.07-.65-3.1.15-.24,3.86-5.83,9.5-7.34,1.19-.32,2.43.39,2.75,1.59s-.39,2.43-1.59,2.75c-3.94,1.06-6.88,5.42-6.91,5.46-.43.66-1.15,1.02-1.88,1.02Z"/>
      <polygon class="cls-7" points="286.14 394.18 251.35 394.18 269.79 383.72 285.24 384.32 286.14 394.18"/>
      <g>
        <ellipse class="cls-10" cx="211.38" cy="238.76" rx="23.92" ry="21.53" transform="translate(-20.23 19.56) rotate(-5.06)"/>
        <path class="cls-7" d="M211.87,239.06c1.81,6.35.45,12.31-3.05,13.3-3.49.99-7.79-3.35-9.6-9.7s-.45-12.31,3.05-13.3,7.79,3.35,9.6,9.7Z"/>
        <path class="cls-7" d="M184.17,242.8c15.1-1.94,45.01-10.47,49.94-13.91-3.89-11.36-21.96-21.08-38.13-15.61-14.57,4.93-11.81,29.51-11.81,29.51Z"/>
        <path class="cls-7" d="M187.11,250.1c18.74-3.56,43.11-9.54,50.08-13.38-.43,12.23-3.98,24.62-23.12,28.8-15.64,3.42-26.97-15.43-26.97-15.43Z"/>
      </g>
      <g>
        <ellipse class="cls-10" cx="161.38" cy="246.3" rx="14.72" ry="18.63" transform="translate(-109.12 129.95) rotate(-33.49)"/>
        <path class="cls-7" d="M161.71,246.62c1.14,5.36.16,9.83-2.19,9.98-2.35.16-5.18-4.06-6.31-9.42-1.14-5.36-.16-9.83,2.19-9.98,2.35-.16,5.18,4.06,6.31,9.42Z"/>
        <path class="cls-7" d="M143.12,244.57c10.13,1.2,30.25-.14,33.59-1.97-2.47-9.7-14.45-20.67-25.34-19.27-9.81,1.27-8.25,21.23-8.25,21.23Z"/>
        <path class="cls-7" d="M145,250.88c12.59.57,28.97.25,33.68-1.52-.43,9.61-2.95,18.77-15.81,18.62-10.51-.12-17.87-17.1-17.87-17.1Z"/>
      </g>
      <path class="cls-7" d="M217.46,207.24c-18.89,0-31.44-9.33-32.06-9.8-1.97-1.5-2.36-4.31-.86-6.29,1.49-1.97,4.3-2.36,6.27-.87.22.16,15.13,11.04,35.84,7.11,2.44-.46,4.78,1.14,5.24,3.57.46,2.43-1.14,4.78-3.57,5.24-3.81.72-7.44,1.03-10.86,1.03Z"/>
      <path class="cls-7" d="M137.25,199.51c-.5,0-1.02-.08-1.52-.26-2.33-.84-3.54-3.41-2.7-5.74,2.38-6.62,6.32-10.92,11.72-12.77,9.79-3.37,20.33,3.18,20.77,3.46,2.09,1.32,2.72,4.09,1.4,6.19-1.32,2.09-4.08,2.72-6.18,1.4-2.04-1.27-8.37-4.21-13.1-2.56-2.72.95-4.74,3.34-6.17,7.31-.66,1.83-2.38,2.97-4.22,2.97Z"/>
      <path class="cls-7" d="M172.6,275.19c-.12,0-.25-.02-.37-.05-.71-.21-1.12-.93-.92-1.64.03-.12.88-3.03,4.56-4.93,5.15-2.65,12.99-2.1,23.31,1.63.7.25,1.06,1.03.81,1.72-.25.7-1.02,1.06-1.72.81-11.83-4.29-17.98-3.36-21.05-1.83-2.68,1.34-3.29,3.25-3.32,3.33-.18.58-.71.96-1.29.96Z"/>
      <g>
        <g>
          <path class="cls-8" d="M130.25,270.26c-26.1,2.34-44.79,13.15-44.79,13.15,7.73-1.46,35.36,32.73,42.46,59.09,13.1-4.86,28.38-8.17,44.68-10.75-9.87-27.18-27.92-57.96-42.35-61.49Z"/>
          <path class="cls-6" d="M130.25,270.26c-26.1,2.34-44.79,13.15-44.79,13.15,7.73-1.46,35.36,32.73,42.46,59.09,13.1-4.86,28.38-8.17,44.68-10.75-9.87-27.18-27.92-57.96-42.35-61.49Z"/>
        </g>
        <g>
          <path class="cls-8" d="M130.25,270.26c-17.08-1.93-44.81,12.37-44.81,12.37-4.91,3.13-3.58,9.01-.9,11.49,2.57-3.69,31.23-13.29,42.01-14.58-5.36-4.96-.38-8.56,3.7-9.28Z"/>
          <path class="cls-4" d="M130.25,270.26c-17.08-1.93-44.81,12.37-44.81,12.37-4.91,3.13-3.58,9.01-.9,11.49,2.57-3.69,31.23-13.29,42.01-14.58-5.36-4.96-.38-8.56,3.7-9.28Z"/>
        </g>
      </g>
      <path class="cls-7" d="M105.03,311.92c-1.47,0-2.9-.72-3.76-2.04-3.25-4.98-1.22-12.59-.78-14.06.71-2.37,3.21-3.72,5.58-3.01,2.37.71,3.72,3.2,3.02,5.57-.73,2.51-.88,5.72-.3,6.6,1.35,2.07.77,4.85-1.31,6.21-.76.49-1.61.73-2.45.73Z"/>
    </g>
  </g>
  <g id="Bad_Request" data-name="Bad Request">
    <text class="cls-1" transform="translate(72.89 139.29) scale(.95 1)"><tspan x="0" y="0">No Books</tspan></text>
    <text class="cls-2" transform="translate(106.2 77.2) scale(.95 1)"><tspan x="0" y="0">Our engine return 0 results, please try again.</tspan></text>
  </g>
</svg>